@startuml
class "Window" as C_0008871575618986871683
class C_0008871575618986871683 {
+Window(const std::string & window_name) : void
+~Window() : void
..
#draw() : void
+init() : bool
#init_glfw() : bool
#init_gui() : bool
#render() : void
+run() : void
__
#height_ : int
#name_ : std::string
#width_ : int
#window_ : GLFWwindow *
}
abstract "Widget" as C_0017184784915024955243
abstract C_0017184784915024955243 {
+Widget(const std::string & label) : void
+~Widget() constexpr = default : void
..
{abstract} +draw() = 0 : void
__
#label_ : std::string
}
class "ControlPoint" as C_0002155309149693178434
class C_0002155309149693178434 {
__
+x : float
+y : float
}
abstract "Shape" as C_0007080987761836185060
abstract C_0007080987761836185060 {
+~Shape() constexpr = default : void
..
+add_control_point(float x, float y) : void
{abstract} +draw(const Config & config) const = 0 : void
+get_control_point(int index) const : ControlPoint
+get_control_points_count() const : int
{abstract} +update(float x, float y) = 0 : void
__
}
class "Shape::Config" as C_0007933054238878135100
class C_0007933054238878135100 {
__
+bias : float[2]
+line_color : unsigned char[4]
+line_thickness : float
}
class "Canvas" as C_0010143599884954815735
class C_0010143599884954815735 {
+clear_shape_list() : void
+draw() : void
-draw_background() : void
-draw_shapes() : void
+get_shape_type() const : Canvas::ShapeType
-mouse_click_event() : void
-mouse_click_right_event() : void
-mouse_move_event() : void
-mouse_pos_in_canvas() const : ImVec2
-mouse_release_event() : void
+set_attributes(const ImVec2 & min, const ImVec2 & size) : void
+set_default() : void
+set_ellipse() : void
+set_freehand() : void
+set_line() : void
+set_polygon() : void
+set_rect() : void
+show_background(bool flag) : void
__
-background_color_ : ImU32
-border_color_ : ImU32
-canvas_max_ : ImVec2
-canvas_min_ : ImVec2
-canvas_minimal_size_ : ImVec2
-canvas_size_ : ImVec2
-current_shape_ : std::shared_ptr<Shape>
-draw_status_ : bool
-end_point_ : ImVec2
-is_active_ : bool
-is_hovered_ : bool
-shape_list_ : std::vector<std::shared_ptr<Shape>>
-shape_type_ : ShapeType
-show_background_ : bool
-start_point_ : ImVec2
}
enum "Canvas::ShapeType" as C_0012239519789625349070
enum C_0012239519789625349070 {
kDefault
kLine
kRect
kEllipse
kPolygon
kFreehand
}
class "MiniDraw" as C_0016505036820764618062
class C_0016505036820764618062 {
+MiniDraw(const std::string & window_name) : void
+~MiniDraw() : void
..
+draw() : void
-draw_canvas() : void
__
-flag_show_canvas_view_ : bool
-p_canvas_ : std::shared_ptr<Canvas>
}
C_0007080987761836185060 ..> C_0007933054238878135100
C_0007080987761836185060 ..> C_0002155309149693178434
C_0007933054238878135100 --+ C_0007080987761836185060
C_0010143599884954815735 o-- C_0012239519789625349070 : -shape_type_
C_0010143599884954815735 --> C_0007080987761836185060 : -current_shape_
C_0010143599884954815735 o-- C_0007080987761836185060 : -shape_list_
C_0017184784915024955243 <|-- C_0010143599884954815735
C_0012239519789625349070 --+ C_0010143599884954815735
C_0016505036820764618062 --> C_0010143599884954815735 : -p_canvas_
C_0008871575618986871683 <|-- C_0016505036820764618062

'Generated with clang-uml, version 0.6.0
'LLVM version clang version 19.1.3 (https://github.com/llvm/llvm-project.git ab51eccf88f5321e7c60591c5546b254b6afab99)
@enduml
